<svg width="840" height="1050" viewBox="0 0 840 1050" fill="none" xmlns="http://www.w3.org/2000/svg">
  <defs>
    <linearGradient id="zzz-bg" x1="140" y1="120" x2="700" y2="900" gradientUnits="userSpaceOnUse">
      <stop offset="0" stop-color="#050A14" />
      <stop offset="0.5" stop-color="#1D3159" />
      <stop offset="1" stop-color="#081F3C" />
    </linearGradient>
    <linearGradient id="zzz-neon" x1="220" y1="280" x2="620" y2="820" gradientUnits="userSpaceOnUse">
      <stop offset="0" stop-color="#6AF7FF" />
      <stop offset="0.5" stop-color="#7B5CFF" />
      <stop offset="1" stop-color="#FF59C7" />
    </linearGradient>
    <radialGradient id="zzz-spot" cx="0" cy="0" r="1" gradientUnits="userSpaceOnUse" gradientTransform="translate(420 420) scale(280 280)">
      <stop offset="0" stop-color="#4AE7FF" stop-opacity="0.7" />
      <stop offset="1" stop-color="#091632" stop-opacity="0" />
    </radialGradient>
  </defs>
  <rect width="840" height="1050" rx="48" fill="url(#zzz-bg)" />
  <circle cx="420" cy="420" r="240" fill="url(#zzz-spot)" />
  <path
    d="M260 780C360 680 480 660 580 720C640 756 720 744 760 696"
    stroke="url(#zzz-neon)"
    stroke-width="24"
    stroke-linecap="round"
    stroke-linejoin="round"
  />
  <path
    d="M240 320L360 300L280 420L380 400L300 520"
    stroke="#6AF7FF"
    stroke-width="18"
    stroke-linecap="round"
    stroke-linejoin="round"
  />
  <path
    d="M460 360L560 340L480 448L560 432L470 540"
    stroke="#FF59C7"
    stroke-width="18"
    stroke-linecap="round"
    stroke-linejoin="round"
  />
  <circle cx="612" cy="300" r="48" fill="#FF59C7" opacity="0.4" />
  <circle cx="228" cy="560" r="28" fill="#6AF7FF" opacity="0.6" />
  <text x="220" y="220" fill="#EEF7FF" font-family="'Archivo Black', 'Arial Black', sans-serif" font-size="42" letter-spacing="0.32em">
    ZENLESS ZONE ZERO
  </text>
</svg>
